<svg
   width="500"
   height="544"
   viewBox="0 0 132.29167 143.93333"
   xmlns="http://www.w3.org/2000/svg">
   <style>/* <![CDATA[ */
   	@keyframes rotation {
		  from {
		    transform: rotate(0deg);
		  }
		  to {
		    transform: rotate(359deg);
		  }
		}
		#path19, #path20 {
			transform-box: fill-box;
			transform-origin: center;
		}
    #path19 {
    	animation: 2s linear infinite rotation;
    }
    #path20 {
    	animation: 2s linear infinite reverse rotation;
    }
  /* ]]> */</style>
  <path
     id="path2"
     d="m 131.90023,77.805861 c 0,36.401099 -29.50845,65.909429 -65.909474,65.909429 -36.401695,0 -65.91018199,-29.50833 -65.91018199,-65.909429 0,-36.40173 29.50848699,-65.910182 65.91018199,-65.910182 36.401024,0 65.909474,29.508452 65.909474,65.910182"
     style="display:inline;fill:#231f20;fill-opacity:1;fill-rule:nonzero;stroke:none;stroke-width:0.0352778" />
  <path
     id="path3"
     d="M 3.62077,0.61490408 6.052714,53.919982 44.095955,17.867855 3.62077,0.61490408"
     style="display:inline;fill:#231f20;fill-opacity:1;fill-rule:nonzero;stroke:none;stroke-width:0.0352778" />
  <path
     id="path4"
     d="M 130.35436,-0.04867092 83.906929,19.63633 122.83243,54.580382 130.35436,-0.04867092"
     style="display:inline;fill:#231f20;fill-opacity:1;fill-rule:nonzero;stroke:none;stroke-width:0.0352778" />
  <path
     id="path5"
     d="M 123.21414,68.699255 C 117.41306,88.173648 108.7379,106.47823 66.448309,107.17744 16.312904,108.00576 7.611957,69.941739 7.611957,69.941739 c 0,0 -4.144716,66.295061 56.764488,66.295061 60.909555,0 58.837695,-67.537545 58.837695,-67.537545"
     style="display:inline;fill:#ffffff;fill-opacity:1;fill-rule:nonzero;stroke:none;stroke-width:0.0352778" />
  <path
     id="path6"
     d="M 49.182305,40.203981 C 37.511004,38.470078 37.312037,28.863939 38.158704,23.493955 l 5.937251,-5.6261 -0.14852,-0.06315 c 9.008181,-3.428295 16.981312,-4.702881 23.860479,-4.702881 8.85437,0 15.894404,2.112433 20.986399,4.463344 l -2.209095,0.936273 c -4.724753,-1.584325 -8.2423,-2.028825 -10.705395,-2.028825 -3.157714,0 -4.580467,0.731661 -4.580467,0.731661 3.758848,3.53695 0,11.7221 0,11.7221 L 49.182305,40.203978"
     style="display:inline;fill:#24476d;fill-opacity:1;fill-rule:nonzero;stroke:none;stroke-width:0.0352778" />
  <path
     id="path7"
     d="m 38.158704,23.493955 c 0.340784,-2.160411 0.8509,-3.635375 0.8509,-3.635375 1.67887,-0.757061 3.324931,-1.440039 4.937831,-2.053872 l 0.14852,0.06315 -5.937251,5.6261"
     style="display:inline;fill:#24476d;fill-opacity:1;fill-rule:nonzero;stroke:none;stroke-width:0.0352778" />
  <path
     id="path8"
     d="M 98.50558,23.836855 C 93.891247,21.320844 89.934844,19.624688 86.585218,18.501444 l 2.209095,-0.936273 c 6.386689,2.948517 9.711267,6.271684 9.711267,6.271684"
     style="display:inline;fill:#24476d;fill-opacity:1;fill-rule:nonzero;stroke:none;stroke-width:0.0352778" />
  <path
     id="path9"
     d="M 26.842615,22.954205 C 22.419805,16.75978 4.503385,1.5007291 4.503385,1.5007291 L 28.392086,11.895679 26.842615,22.954205"
     style="display:inline;fill:#24476d;fill-opacity:1;fill-rule:nonzero;stroke:none;stroke-width:0.0352778" />
  <path
     id="path10"
     d="M 123.71861,43.522209 C 122.16921,31.799756 112.88198,16.75978 112.88198,16.75978 l -9.73455,4.2037 26.10203,-19.4627509 -5.53085,42.0214799"
     style="display:inline;fill:#24476d;fill-opacity:1;fill-rule:nonzero;stroke:none;stroke-width:0.0352778" />
  <path
     id="path11"
     d="M 93.19698,19.85858 90.13628,18.172655 127.25838,1.5007291 93.19698,19.85858"
     style="display:inline;fill:#24476d;fill-opacity:1;fill-rule:nonzero;stroke:none;stroke-width:0.0352778" />
  <path
     id="path12"
     d="m 64.930306,136.19658 h 0.352778 v -28.97434 h -0.352778 z"
     style="display:inline;fill:#4a5153;fill-opacity:1;fill-rule:nonzero;stroke:none;stroke-width:0.0352778" />
  <path
     id="path13"
     d="m 85.191393,105.60616 0.0081,-0.0998 -0.04269,0.0924 0.03457,0.007 0.0081,-0.0998 -0.04269,0.0924 0.02716,0.0194 c 0.07055,0.0579 0.26423,0.28575 0.5207,0.95145 0.776817,1.99922 2.144889,7.89862 3.348214,24.97624 l 0.35172,-0.0247 c -0.914401,-12.96557 -1.92017,-19.4969 -2.70122,-22.79992 -0.391231,-1.65213 -0.724606,-2.49668 -0.971903,-2.94295 -0.123825,-0.22295 -0.226483,-0.34783 -0.311503,-0.42227 -0.08396,-0.0741 -0.155575,-0.0981 -0.199319,-0.1016 l -0.02928,0.35172"
     style="display:inline;fill:#4a5153;fill-opacity:1;fill-rule:nonzero;stroke:none;stroke-width:0.0352778" />
  <path
     id="path14"
     d="m 102.99433,98.962299 0.0501,-0.04233 -0.0512,0.04092 0.001,0.0014 0.0501,-0.04233 -0.0512,0.04092 c 0.004,0.0042 0.0395,0.05327 0.0907,0.128058 0.3937,0.569383 1.88559,2.847273 3.28048,5.933723 1.39594,3.08681 2.69346,6.98422 2.71392,10.7872 l 0.35277,-0.002 c -0.024,-4.15671 -1.53105,-8.37487 -3.04517,-11.57986 -0.75742,-1.60196 -1.51765,-2.95063 -2.09727,-3.90948 -0.28998,-0.479426 -0.53446,-0.861837 -0.71155,-1.129595 -0.0885,-0.134056 -0.16016,-0.239183 -0.21202,-0.314325 -0.0261,-0.03739 -0.0473,-0.06738 -0.0631,-0.08961 l -0.0381,-0.05045 -0.26952,0.227542"
     style="display:inline;fill:#4a5153;fill-opacity:1;fill-rule:nonzero;stroke:none;stroke-width:0.0352778" />
  <path
     id="path15"
     d="m 45.853846,104.9186 c -0.0018,0.009 -4.115153,12.68413 -4.116917,23.24665 0,1.49048 0.08185,2.93962 0.269875,4.30635 l 0.349603,-0.0479 c -0.185561,-1.34732 -0.2667,-2.78101 -0.2667,-4.25841 -3.53e-4,-5.23766 1.024114,-11.02639 2.049639,-15.50169 0.512586,-2.23781 1.025525,-4.14765 1.410053,-5.49776 0.192264,-0.67487 0.352425,-1.21003 0.464256,-1.57586 0.112183,-0.36618 0.175683,-0.56162 0.175683,-0.56233 L 45.853846,104.919"
     style="display:inline;fill:#4a5153;fill-opacity:1;fill-rule:nonzero;stroke:none;stroke-width:0.0352778" />
  <path
     id="path16"
     d="m 26.013341,95.66171 c -2.83e-4,7.05e-4 -0.06851,0.191911 -0.19364,0.540808 -0.875312,2.44087 -4.524516,12.561322 -6.843889,18.166362 l 0.326037,0.13462 c 2.65744,-6.42225 7.043173,-18.721846 7.043738,-18.723257 L 26.013341,95.66171"
     style="display:inline;fill:#4a5153;fill-opacity:1;fill-rule:nonzero;stroke:none;stroke-width:0.0352778" />
  <path
     id="path17"
     d="m 11.441818,79.688989 c -0.01034,0.01588 -2.548008,3.316112 -2.550336,7.996062 0,0.195791 0.0044,0.394405 0.01376,0.594783 l 0.35239,-0.01623 c -0.0091,-0.195086 -0.01337,-0.388055 -0.01337,-0.578555 -1.42e-4,-2.274711 0.6201123,-4.223456 1.241319,-5.602112 0.31048,-0.68968 0.620959,-1.236133 0.853158,-1.609725 0.116028,-0.186619 0.212478,-0.329847 0.279611,-0.426155 0.03362,-0.04798 0.05966,-0.08431 0.07729,-0.108303 l 0.02589,-0.03493 -0.279718,-0.214842"
     style="display:inline;fill:#4a5153;fill-opacity:1;fill-rule:nonzero;stroke:none;stroke-width:0.0352778" />
  <path
     id="path18"
     d="m 118.89296,80.801298 0.0441,-0.06526 -0.0452,0.06421 0.001,0.0011 0.0441,-0.06526 -0.0452,0.06421 c 0.002,0.0021 0.47131,0.329495 0.95532,1.458736 0.48366,1.129242 0.98037,3.061406 1.02518,6.261454 l 0.35277,-0.0049 c -0.0462,-3.285773 -0.56303,-5.274734 -1.07773,-6.450895 -0.51435,-1.176161 -1.02905,-1.537406 -1.05728,-1.55575 l -0.1972,0.292453"
     style="display:inline;fill:#4a5153;fill-opacity:1;fill-rule:nonzero;stroke:none;stroke-width:0.0352778" />
  <path
     id="path19"
     d="m 32.742154,68.917272 4.868686,-4.730045 -0.138994,-10.293703 -8.34637,-0.556331 c 0,0 -7.233462,5.843059 -7.789898,17.527412 L 30.65565,77.81962 47.626202,66.273555 50.547908,45.96449 35.245924,35.392798 c 0,0 -18.083743,3.895372 -20.170212,12.79772 0,0 1.112767,-11.128376 19.474851,-20.170424 0,0 9.597955,1.668992 20.587689,14.745054 0,0 3.060701,2.920647 5.008034,23.926096 0,0 -18.223443,13.633098 -25.178598,18.779773 0,0 -13.215268,-13.493751 -21.700245,-12.798425 0,0 -0.834284,-18.640074 15.162673,-28.933777 0,0 12.519413,7.233709 15.997097,6.538031 l 0.417336,12.380384 -12.102395,6.260042"
     style="display:inline;fill:#fbe921;fill-opacity:1;fill-rule:nonzero;stroke:none;stroke-width:0.0352778" />
  <path
     id="path20"
     d="m 116.34379,53.615535 -4.03437,-10.294056 -9.04169,-6.120342 c 0,0 -9.877428,-1.391356 -23.230773,7.650339 l -0.556331,21.283085 11.963401,14.049728 15.579023,-8.763353 c 0,0 3.06035,-13.076415 -3.61668,-18.501079 0,0 -6.955015,-3.199342 -10.988676,-0.556331 l 0.138994,9.320037 5.146675,4.729339 L 87.410013,64.74391 84.487954,51.528854 101.32004,43.04349 c 0,0 8.34672,3.199694 12.10275,8.485364 0,0 2.78165,19.474746 2.78165,21.283085 0,0 -16.831026,5.286728 -25.73408,13.354403 L 69.743606,64.74391 c 0,0 0.556331,-14.189075 7.094362,-21.422431 l 20.448059,-13.632393 16.831733,12.102395 2.22603,12.241037"
     style="display:inline;fill:#fbe921;fill-opacity:1;fill-rule:nonzero;stroke:none;stroke-width:0.0351896;stroke-dasharray:none" />
  <path
     id="path21"
     d="M 66.777313,14.243745 66.60798,14.193655 C 63.70991,23.923972 60.101346,33.328323 51.962057,40.390229 43.82312,47.452135 31.130528,52.195585 10.008663,52.54554 9.4699711,52.55434 8.9358655,52.55895 8.4066988,52.55895 -15.906395,52.55645 -30.154384,43.272074 -38.34585,33.994018 c -4.094692,-4.639733 -6.672721,-9.280525 -8.22646,-12.75962 -0.776817,-1.739547 -1.297411,-3.188758 -1.623731,-4.201584 -0.163054,-0.506588 -0.277565,-0.904169 -0.351155,-1.17475 -0.07359,-0.270227 -0.105551,-0.410633 -0.105833,-0.410986 l -0.347945,0.02822 c -1.41e-4,0.0032 -0.0598,0.958145 -0.0598,2.637015 v 0 c 9.53e-4,6.167967 0.801723,22.108231 8.327214,36.530458 7.520482,14.424061 21.807736,27.320842 48.673177,27.314915 14.287853,2.82e-4 25.13436,-3.710199 33.354435,-9.400399 12.331701,-8.535847 18.745554,-21.50717 22.078952,-33.042298 3.333397,-11.53654 3.588808,-21.644682 3.588808,-24.483838 0,-0.515055 -0.0085,-0.790928 -0.0085,-0.792692 l -0.345369,-0.0448 0.169333,0.05009 -0.176389,0.0056 c 0,0 0.0021,0.06668 0.0042,0.198614 0.0018,0.131586 0.0039,0.327377 0.0039,0.583141 0.0011,3.757084 -0.455083,20.424071 -8.019345,36.126916 -3.781778,7.852129 -9.33697,15.461934 -17.496367,21.10913 -8.159751,5.646915 -18.926529,9.337041 -33.153705,9.337711 -13.3752175,-3.88e-4 -23.59131,-3.202129 -31.401669,-8.190089 -11.714023,-7.481359 -18.026417,-18.995286 -21.41072,-29.802316 -3.384056,-10.805584 -3.835506,-20.897146 -3.835224,-25.50019 v 0 c 0,-0.835378 0.01489,-1.489781 0.02963,-1.935339 0.0074,-0.222603 0.01489,-0.392995 0.02039,-0.507295 0.0055,-0.114653 0.0091,-0.172156 0.0091,-0.172508 l -0.176001,-0.01094 -0.171979,0.03916 c 0.0044,0.01729 2.139844,9.356373 10.386554,18.702162 8.245088,9.346142 22.613233,18.686287 47.0169908,18.684171 0.5312834,0 1.0671525,-0.0046 1.6079612,-0.01341 21.167726,-0.34925 33.957332,-5.10787 42.178466,-12.241389 8.221134,-7.133873 11.850512,-16.61901 14.753168,-26.362733 l -0.168981,-0.05045 -0.176389,0.0056 0.176389,-0.0056"
     style="display:none;fill:#231f20;fill-opacity:1;fill-rule:nonzero;stroke:none;stroke-width:0.0352778" />
</svg>
