<svg 
 xmlns="http://www.w3.org/2000/svg"
 xmlns:xlink="http://www.w3.org/1999/xlink"
 width="160px" height="46px">
<path fill-rule="evenodd"  fill="rgb(255, 255, 255)"
 d="M157.669,21.978 C155.149,24.785 152.629,27.593 150.109,30.399 C146.469,34.731 144.609,37.678 144.529,39.242 C144.889,39.684 145.569,39.904 146.569,39.904 C148.809,39.904 152.389,39.324 157.309,38.164 C157.549,38.124 157.839,38.354 158.179,38.854 C158.518,39.354 158.689,39.844 158.689,40.324 C158.689,41.404 157.909,41.944 156.349,41.944 C154.948,41.944 153.069,42.073 150.709,42.334 C148.348,42.594 146.569,42.724 145.369,42.724 C144.328,42.724 143.428,42.484 142.669,42.004 C141.748,41.444 141.289,40.664 141.289,39.664 C141.289,38.144 142.429,35.864 144.709,32.824 C145.509,31.784 147.669,29.204 151.189,25.084 C153.549,22.284 154.809,20.484 154.969,19.684 C154.569,19.364 153.928,19.204 153.049,19.204 C151.449,19.204 149.908,19.544 148.429,20.224 C147.429,20.664 146.409,21.304 145.369,22.144 C144.489,22.824 144.009,23.164 143.929,23.164 C142.929,23.164 142.429,22.504 142.429,21.184 C142.429,19.864 144.309,18.704 148.069,17.704 C151.108,16.904 153.589,16.504 155.509,16.504 C157.909,16.504 159.109,17.266 159.109,18.789 C159.109,19.793 158.629,20.855 157.669,21.978 ZM121.929,43.624 C120.609,43.624 119.069,43.324 117.309,42.725 C110.628,40.608 107.289,34.616 107.289,24.750 C107.289,18.999 108.569,13.826 111.129,9.233 C114.168,3.720 118.349,0.964 123.669,0.964 C128.309,0.964 131.969,3.340 134.649,8.094 C136.889,12.048 138.009,16.562 138.009,21.635 C138.009,27.267 136.749,32.160 134.229,36.314 C131.268,41.187 127.169,43.624 121.929,43.624 ZM125.791,4.803 C125.152,4.564 124.593,4.444 124.115,4.444 C121.562,4.444 119.047,5.622 116.573,7.978 C112.383,11.972 110.289,18.142 110.289,26.487 C110.289,27.247 110.448,28.445 110.768,30.082 C111.446,33.517 112.563,36.072 114.120,37.749 C115.955,39.666 118.529,40.624 121.841,40.624 C126.390,40.624 129.781,38.368 132.016,33.855 C133.771,30.381 134.649,26.128 134.649,21.097 C134.649,12.232 131.696,6.800 125.791,4.803 ZM94.529,43.744 C91.289,43.744 88.868,42.484 87.269,39.964 C85.949,37.884 85.289,35.124 85.289,31.684 C85.289,28.284 86.048,24.944 87.569,21.664 C89.489,17.624 91.928,15.604 94.889,15.604 C95.648,15.604 96.728,16.044 98.129,16.924 C102.248,19.484 104.309,23.884 104.309,30.124 C104.309,33.564 103.549,36.564 102.029,39.124 C100.229,42.204 97.729,43.744 94.529,43.744 ZM100.409,23.164 C99.409,20.324 97.868,18.904 95.789,18.904 C93.389,18.904 91.508,20.484 90.149,23.644 C89.108,26.084 88.589,28.704 88.589,31.504 C88.589,34.024 88.949,36.144 89.669,37.864 C90.709,40.224 92.329,41.404 94.529,41.404 C96.929,41.404 98.749,40.044 99.989,37.324 C100.949,35.204 101.429,32.784 101.429,30.064 C101.429,27.504 101.089,25.204 100.409,23.164 ZM77.614,22.984 C74.197,25.984 72.489,27.964 72.489,28.924 C72.489,29.284 73.091,30.184 74.297,31.624 C76.185,33.824 78.052,36.024 79.901,38.224 C82.432,40.984 84.581,42.784 86.349,43.624 L86.349,44.284 C85.346,45.084 84.542,45.484 83.941,45.484 C83.057,45.484 81.533,44.224 79.366,41.704 C76.636,38.464 75.191,36.764 75.031,36.604 C74.549,36.204 73.706,35.264 72.502,33.784 C71.458,32.544 70.535,31.684 69.733,31.204 L68.649,32.644 L68.649,38.584 C68.649,38.944 68.789,39.454 69.069,40.114 C69.348,40.774 69.489,41.284 69.489,41.644 C69.489,41.884 69.318,42.114 68.979,42.334 C68.639,42.553 68.328,42.664 68.049,42.664 C66.449,42.664 65.649,41.804 65.649,40.084 L65.649,31.684 C65.649,31.164 65.709,30.394 65.829,29.374 C65.949,28.354 66.009,27.584 66.009,27.064 L66.009,10.504 C66.009,8.144 65.916,6.284 65.732,4.924 C65.732,4.724 65.640,4.284 65.455,3.604 C65.344,3.044 65.289,2.584 65.289,2.224 C65.289,1.824 65.598,1.424 66.219,1.024 C66.839,0.624 67.389,0.424 67.869,0.424 C68.229,0.424 68.619,0.534 69.039,0.754 C69.459,0.974 69.669,1.244 69.669,1.564 C69.669,1.604 69.562,2.084 69.350,3.004 C69.052,4.084 68.904,6.184 68.904,9.304 L68.649,26.704 L68.950,27.004 C70.234,26.204 72.002,24.724 74.251,22.564 C75.655,21.124 77.060,19.684 78.467,18.244 C80.755,15.924 82.100,14.764 82.502,14.764 C83.103,14.764 83.585,15.034 83.947,15.574 C84.308,16.114 84.468,16.684 84.429,17.284 L84.369,17.584 C82.841,18.584 80.589,20.384 77.614,22.984 ZM60.829,11.524 C60.069,11.524 59.368,11.244 58.729,10.684 C58.089,10.124 57.769,9.484 57.769,8.764 C57.769,7.404 58.449,6.724 59.809,6.724 C60.609,6.724 61.299,6.984 61.879,7.504 C62.458,8.024 62.749,8.684 62.749,9.484 C62.749,10.844 62.109,11.524 60.829,11.524 ZM59.089,17.044 C59.569,17.044 60.069,17.184 60.589,17.464 C61.269,17.744 61.609,18.084 61.609,18.484 C61.609,19.204 61.438,20.284 61.099,21.724 C60.759,23.164 60.589,24.244 60.589,24.964 L60.589,38.224 C60.589,39.104 60.789,40.304 61.189,41.824 C61.029,42.144 60.808,42.304 60.529,42.304 C58.569,42.304 57.589,41.364 57.589,39.484 L57.589,17.464 C58.108,17.184 58.609,17.044 59.089,17.044 ZM51.629,44.524 C50.669,44.524 50.089,44.124 49.889,43.324 C49.849,43.204 49.829,42.424 49.829,40.984 C49.829,40.584 49.769,40.264 49.649,40.024 C47.408,41.664 44.989,42.484 42.389,42.484 C40.589,42.484 38.849,41.983 37.169,40.984 C35.249,39.864 34.289,38.464 34.289,36.784 C34.289,35.144 35.429,33.544 37.709,31.984 C39.788,30.544 41.708,29.824 43.469,29.824 L49.409,29.824 C49.649,29.584 49.769,29.164 49.769,28.564 C49.769,25.884 49.549,23.864 49.109,22.504 C48.389,20.224 46.969,19.084 44.849,19.084 C43.328,19.084 41.929,20.044 40.649,21.964 C39.488,23.724 38.909,25.404 38.909,27.004 C38.909,27.084 38.909,27.204 38.909,27.364 C38.909,27.524 38.909,27.624 38.909,27.664 C38.909,27.984 38.749,28.144 38.429,28.144 C38.029,28.144 37.589,27.904 37.109,27.424 C36.629,26.944 36.389,26.524 36.389,26.164 C36.389,25.044 36.728,23.634 37.409,21.934 C38.089,20.234 38.828,18.944 39.629,18.064 C40.628,16.984 41.869,16.444 43.349,16.444 C45.629,16.444 47.729,17.164 49.649,18.604 C51.689,20.164 52.729,22.044 52.769,24.244 L52.949,43.684 C52.949,44.244 52.508,44.524 51.629,44.524 ZM46.049,31.744 C44.089,31.744 42.368,32.084 40.889,32.764 C39.008,33.644 38.069,34.964 38.069,36.724 C38.069,37.804 38.569,38.644 39.569,39.244 C40.409,39.764 41.408,40.024 42.569,40.024 C44.288,40.024 45.919,39.464 47.459,38.344 C48.998,37.224 49.769,35.824 49.769,34.144 C49.769,32.544 48.529,31.744 46.049,31.744 ZM30.209,5.884 C29.329,8.164 28.808,14.444 28.649,24.724 C30.089,25.044 30.809,25.524 30.809,26.164 C30.809,26.564 30.629,27.024 30.269,27.544 C29.869,27.704 29.288,27.944 28.529,28.264 C28.529,30.024 28.729,32.604 29.129,36.004 C29.168,36.204 29.369,36.804 29.729,37.804 C30.008,38.604 30.149,39.164 30.149,39.484 C30.149,39.964 29.969,40.444 29.609,40.924 C29.249,41.404 28.829,41.644 28.349,41.644 C27.269,41.644 26.528,40.844 26.129,39.244 C26.089,39.044 25.928,37.774 25.649,35.434 C25.369,33.094 25.229,31.584 25.229,30.904 C25.229,30.184 25.289,29.504 25.409,28.864 C22.921,28.904 19.991,29.243 16.621,29.879 C13.732,30.438 10.842,31.015 7.953,31.613 L6.869,32.688 C6.910,34.202 6.932,35.736 6.932,37.288 C7.100,39.639 7.499,41.153 8.129,41.829 C7.969,42.347 7.718,42.606 7.379,42.606 C7.039,42.606 6.638,42.695 6.179,42.875 C5.719,43.054 5.369,43.144 5.129,43.144 C4.369,43.144 3.889,41.661 3.689,38.694 C3.608,36.835 3.548,34.976 3.509,33.117 L3.089,32.524 L2.849,32.524 C2.329,32.524 1.849,32.374 1.409,32.074 C0.968,31.774 0.749,31.384 0.749,30.904 C0.749,30.584 0.929,30.134 1.289,29.554 C1.649,28.974 2.009,28.684 2.369,28.684 C2.449,28.684 2.558,28.684 2.699,28.684 C2.839,28.684 2.948,28.684 3.029,28.684 L3.329,28.624 C3.368,26.873 3.389,23.368 3.389,18.112 C3.389,11.144 3.869,6.405 4.829,3.896 C5.269,2.822 5.989,2.284 6.989,2.284 C7.628,2.284 8.249,2.494 8.849,2.914 C9.449,3.334 9.749,3.864 9.749,4.504 C9.749,4.744 9.565,5.284 9.198,6.124 C8.789,7.124 8.564,7.704 8.524,7.864 C7.420,11.704 6.869,17.504 6.869,25.264 C6.869,27.064 7.210,27.964 7.893,27.964 C8.093,27.964 9.157,27.764 11.083,27.364 C15.416,26.564 18.306,26.164 19.751,26.164 C20.112,26.164 20.724,26.054 21.587,25.834 C22.449,25.614 23.292,25.504 24.115,25.504 C24.938,25.504 25.328,24.944 25.289,23.824 L25.169,18.544 C25.088,15.144 25.249,11.744 25.649,8.344 C26.249,2.984 27.329,0.304 28.889,0.304 C29.689,0.304 30.409,0.724 31.049,1.564 C31.568,2.324 31.849,3.144 31.889,4.024 C31.249,4.504 30.908,4.764 30.869,4.804 C30.589,5.084 30.368,5.444 30.209,5.884 Z"/>
</svg>
